<svg
    xmlns="http://www.w3.org/2000/svg"
    id="earth"
    data-name="Layer 2"
    viewBox="0 0 1683.79 876.36"
>
    <g>
        <g>
            <g>
                <path
                    fill="#00b1dc"
                    d="M1683.79,361.43c-31.31-74.9-69.75-140.55-116.74-183.97-11.09-9-22.47-18.66-34.2-28.18.42.29.88.49,1.28.82-29.08-23.05-59.9-46.19-94.75-55.98h0c.87-.16-247.68-83.39-372.12-85.12C698.67.67,216.16,159.99,0,482.05v393.8h1683.78V361.43Z"
                />
                <path
                    d="M0,486.25l1.91-2.92C211.95,170.4,677.12,10.99,1039.91,10.99c9.15,0,18.3.1,27.31.31,63.57.88,159.98,23.5,229.66,42.31,62.01,16.74,113.93,33.37,133.37,39.82l-1.13.2,9.63,2.71c33.65,9.46,63.1,31.17,92.74,54.62l-.09.12c5.97,4.84,11.91,9.77,17.65,14.54,5.69,4.72,11.07,9.19,16.5,13.59,42.81,39.58,81.88,101.19,116.16,183.2l2.09,4.5v-11.39c-34.01-80.08-72.75-140.53-115.18-179.75l-.11-.1c-5.43-4.41-10.81-8.88-16.52-13.61-5.38-4.46-10.92-9.07-16.52-13.62l.11-.14s-.05-.04-.08-.06c-30.4-24.1-60.59-46.53-95.5-56.35-.63-.27-1.5-.57-2.7-.98-1.85-.63-4.59-1.55-8.11-2.71-6.04-1.99-16.13-5.27-29.82-9.54-22.69-7.09-58.26-17.84-98.89-28.86-70.74-19.17-168.61-42.22-233.18-43.12-93.5-2.11-191.87,6.35-292.33,25.16-103.65,19.4-204.38,48.89-299.37,87.65C265.19,205.36,100.83,329.24,0,477.94v8.32Z"
                />
            </g>
            <g>
                <g>
                    <path
                        xmlns="http://www.w3.org/2000/svg"
                        d="M1263.26,672.42c.08-4.77-3.12-9.21-2.66-14.01.4-5.78-1.17-11.22-2.95-16.61-1.47-4.64-1.6-9.81-5.35-13.55-5.54-7.73-11.95-14.48-20.15-19.55-4.34-2.68-7.86-6.49-11.23-10.4-9.6-11.14-21.62-15.46-36.19-12.77-7.69,1.42-15.08,4.22-22.85,5.16-27.37,3.34-48.99,17.31-67.25,36.94-5.8,6.23-10.27,13.85-10.82,22.93-6.64,14.03-11.69,28.69-17.29,43.14-8.33,21.49-16.24,43.1-22.64,65.25-5.33,11.91-9.2,24.32-12.19,36.98-1.42,6.01-2.72,12.05-4.14,18.07-3.89,16.52-6.41,33.24-5.25,50.31.49,2.67.46,5.34.25,8.05-.09,1.16-.17,2.33-.25,3.49h219.04c-.63-19.24.12-38.23,4.11-57.11,1.34-6.32.46-12.74,2.09-19.16,6.35-24.93,19.84-101.28,15.69-126.86l.03-.3Z"
                    />
                </g>
                <g>
                    <path
                        fill="#231f20"
                        d="M594.65,875.85c.62-2.83,1.35-5.64,2.28-8.44,1.07-3.21,4.29-5.47,3.92-9.03-1.1-10.83,6.84-20.41,4.27-31.41-.15-.63-.12-1.01.54-1.27,5.16-2.02,4.12-6.83,4.9-10.83,1.63-8.39,2.62-16.97,5.06-25.12,6.84-22.89,10.84-45.83,10.93-70.04.06-17.15,1.9-34.13-2.68-50.91-1.55-5.69.58-11.03.46-16.31-.11-5.02.43-9.6,1.44-14.35,1.25-5.85,1.42-11.86-1.61-17.14-5.7-9.92-8.68-20.89-12.16-31.57-6.78-20.82-19.79-35.78-39.08-45.51-5.49-2.77-11.35-4.83-17.04-7.21-1.04.23-1.46-.37-1.68-1.24-6.94-5.49-15.85-4.88-23.61-5.83-11-1.35-22.54.66-33.63,2.48-21.19,3.49-40.24,10.61-56.22,26.96-14.35,14.69-26.36,30.09-33.97,49.03-2.78,5.99-5.57,11.97-8.35,17.96-.37.69-.98,1.25-1.09,2.08.18.57,0,.97-.56,1.2-5.87,5.75-6.24,14.22-10.29,20.85-4.22,12.63-4.83,25.82-6,38.92-1.1,14.2-7.53,28.07-2.58,42.69.46,1.34-.29,3.18-.71,4.72-5.83,21.36-10.6,42.85-9.14,65.24.14,2.14-.11,4.31-.22,6.46-1.16,22.56-3.13,45.09-4,67.66h230.81Z"
                    />
                </g>
            </g>
            <g>
                <path
                    fill="#a1cf6d"
                    stroke="#231f20"
                    stroke-width="4.6px"
                    d="M907.61,693.37c-15.06-4.75-35.94,3.05-45.12-9.46-6.24-8.5-18.14,3.01-26.97,1.89-4.4-.55-13.34,2.05-14.75,2.79-14.57,7.65-31.76,2.5-37.32-10.85-2.01-6.58-14.8-.7-14-11.04-4.05-20.65-1.25-43.47,6.62-64.38,3.5-15.59-4.43-34.49,4.59-48.72,11.18-1.56-.59-8.59,3.19-12.8,12.51-3.96,9.25-26.31,18.67-26.02,6.79-.1,9.77-5.47,13.93-9.24,22.59,4.59,52.82,1.53,68.65,25.15,2.42-3.42,4.92-7.3,6.79-.08.42,14.72,19.11,18.9,20.04,30.11-.17,2.84.29,4.89,3.92,5.83,14.31,2.89,4.49,24.32,19.81,25.72,4.78,3.07,4.7,11.74,12.02,12.62,3.13.97,3.64,2.58,3.63,5.2-2.62,9.26,11.68,13.9,5.06,22.07-4.18,16.96-.43,43.08-20.28,51.44-4.02,13.15-15.82,15.1-28.47,9.76Z"
                />
                <path
                    fill="#a1cf6d"
                    stroke="#231f20"
                    stroke-width="4.6px"
                    d="M1383.9,746.68c2.37-12.13,6.55-23.86,14.49-34.8,40-34.88,87.12-90.38,66.72-152.07-67.84-107.07,52.71-212.7-45.19-298.28-16.43-25.24-40.27-46.07-52.5-73.06-5.57-36.5,24.21-63.66,36.25-94.94,10.98-2.79,35.69.59,35.69.59,48.4,13.82,127.62,83.13,127.62,83.13,46.73,40.17,84.98,86.18,116.8,136.22v426.82s-299.89,6.4-299.89,6.4Z"
                />
                <path
                    d="M1683.79,309.2c-33.03-51.35-71.81-96.31-115.28-133.69-3.25-2.84-80.16-69.81-128.51-83.61l-.32-.07c-1.03-.14-25.29-3.4-36.57-.54l-1.15.29-.43,1.11c-3.91,10.15-9.88,20.13-15.66,29.79-12.08,20.19-24.57,41.07-20.72,66.33l.05.31.13.29c7.49,16.52,19.37,30.93,30.87,44.86,7.53,9.13,15.32,18.57,21.79,28.51l.17.27.24.21c51.11,44.68,41.47,95.21,31.27,148.7-9.19,48.21-18.7,98.06,13.34,148.84,15.5,47.32-6.75,97.56-66.14,149.35l-.2.17-.15.21c-15.64,21.55-17.05,46.25-18.42,70.14-.91,16-1.86,32.54-7.11,47.9l4.35,1.49c5.46-15.95,6.42-32.81,7.36-49.12,1.38-24.21,2.69-47.09,17.4-67.49,25.31-22.1,44.26-44.46,56.31-66.43,16.54-30.15,20.2-59.74,10.88-87.92l-.09-.27-.15-.24c-31.25-49.32-21.9-98.34-12.86-145.75,10.44-54.75,20.3-106.46-32.52-152.82-6.58-10.06-14.38-19.51-21.93-28.66-11.24-13.61-22.85-27.69-30.09-43.54-3.45-23.49,8.55-43.55,20.17-62.96,5.66-9.46,11.51-19.24,15.55-29.35,10.44-2.08,31.48.6,33.53.87,47.37,13.62,125.79,81.91,126.59,82.62,44,37.82,83.15,83.48,116.32,135.65l1.98,3.34v-8.78Z"
                />
                <path
                    fill="#a1cf6d"
                    stroke="#231f20"
                    stroke-width="4.6px"
                    d="M1003.9,112.12c-.42,7.02-9.68,7.95-5.89,16.05.88,1.8.45,4.66-1.92,5.6-11.35,6.48,7.58,22.36-9.69,25.81-3.92,26.66,18.74,50.86,24.13,76.36,11.64,28.85-12.22,63.24-38.99,73.36-5.05.64-46.31,18.52-46.31,18.52-13.15,7.75-32.55-10.28-43.22-15.79-16.68-8.62-21.87-33-31.2-50.46-15.68-16.63-27.73-42.22-53.8-41.69-7.79-4.77-18.38-12.16-27.53-7.71-53.24.61-114.97-92.63-108.39-140.08,17.66-43.81,453.03-110.13,408.33-37.37,0,0,3.97,8.24-.31,12.7h0c-7.47,6.95-18.48,13.53-27.26,19.61-5.69,5.11-4.03,18.06-13.47,17.8-3.4-.4-3.92,1.79-4.54,4.23-4.89,8.97-12.94,15.68-19.92,23.06Z"
                />
                <path
                    fill="#a1cf6d"
                    stroke="#231f20"
                    stroke-width="4.6px"
                    d="M450.79,263.26c-23.51,56.58-3.93,128.27-52.36,174.56-11.57,12.97-35.21,6.56-43.5,16.71-10.02,7.98-28.22,12.36-37.91,23.69-47.07,25.19-94.76,76.24-76.47,133.38,9.74,19.9-20.42,32.97-28.97,49.23-24.9,23.34-41.9,57.73-76.67,67.78-20.08,6.37-25.34-21.52-39.94-28.89-35.8-39.63,38.77-93.51,4.19-137.44-7.86-19.63-30.97-37.18-25.55-60.5,22.45-20.61,26.2-54.98,53.46-71.19,8.56-23.89,32.94-39.38,29.78-66.33,13.89-18.2-1.86-52.34,16.68-68.06,97.52-82.73,221.57-141.86,338.28-188.42,18.26-1.77,18.9,20.41,22.61,32.78-1.19,8.9-15.02,17.43-22.38,23.56-2.83.84-1.83,8.46-5.33,11.64,2.42,3.71,5.06-1.58,7.37.78-1.31,4.88-6.13,3.3-9.14,4.98-2.81,1.57-8.49.18-6.97,6.51-1.73,3.22-8.97,1.6-9.4,7.73-10.3,23.12-24.82,45.87-37.76,67.5Z"
                />
            </g>
        </g>
    </g>
</svg>