<svg
    viewBox="0 0 395 384"
    fill="none"
    xmlns="http://www.w3.org/2000/svg"
    id="moon"
    class="animated-element"
>
    <g clip-path="url(#clip0_1183_50)">
        <path
            d="M135.14 373.57C244.1 406.64 371.98 324.54 391.96 211.17C402.67 5.13992 87.18 -85.8901 13.94 112.52C-26.93 210.04 43.97 336.35 135.14 373.57Z"
            fill="#eaeae9"
            stroke="#231F20"
            stroke-width="4.21"
            stroke-miterlimit="10"
        />
        <path
            d="M103.2 79.44C43.6 78.51 34.08 187.28 82.92 206.36C163.22 231.04 172.72 87.37 103.2 79.44Z"
            fill="#f5ec43"
            stroke="#231F20"
            stroke-width="4.6"
            stroke-miterlimit="10"
        />
        <path
            d="M103.2 79.4399C172.73 87.3799 163.22 231.04 82.9299 206.35C34.0699 187.28 43.6099 78.5199 103.2 79.4399ZM100.98 197.44C111.59 194.72 127.66 191 131.25 178.58C171.45 100.55 1.30987 186.73 100.98 197.44ZM104.09 127.25C158.41 126.61 103.25 68.8599 82.8099 101.67C84.6299 112.85 91.1799 126.69 104.09 127.25Z"
            fill="#231f20"
        />
        <path
            d="M100.98 197.44C1.30985 186.73 171.44 100.55 131.24 178.58C127.66 191 111.59 194.72 100.98 197.44Z"
            fill="#ffffff"
        />
        <path
            d="M104.09 127.25C77.16 122.1 76.31 85.5099 108.61 91.9999C131.64 106.21 137.37 125.55 104.09 127.25Z"
            fill="#ffffff"
        />
        <path
            d="M266.97 59.06C189.67 51.4 172.94 201.35 261.83 193.37C264.36 193.14 266.91 193.01 269.44 192.83C327.76 188.81 319.16 97.02 281.52 65.15C277.42 61.68 272.31 59.59 266.97 59.06Z"
            fill="#231f20"
        />
        <path
            d="M249.56 184.08C226.16 184.08 218.46 156.92 224.87 151.43C243.57 134.8 266.99 123.03 291.41 133.62C291.41 133.62 296.87 135.49 296.87 141.87C296.87 166.59 291.33 184.09 249.56 184.09V184.08Z"
            fill="#ffffff"
        />
        <path
            d="M270.1 71.03C298.35 85.43 278.63 98.27 260.54 98.24C252.83 98.23 247.64 94.54 242.5 89.92C236.8 84.81 238.42 74.57 245.41 72.19C253.72 69.36 264.51 68.76 270.09 71.02L270.1 71.03Z"
            fill="#ffffff"
        />
        <path
            d="M222.77 232.71C235.61 230.34 247.54 223.28 255.78 213.16C256.63 212.11 256.8 210.65 255.78 209.62C254.9 208.74 253.1 208.57 252.24 209.62C244.47 219.17 233.54 225.65 221.43 227.89C220.1 228.14 219.35 229.74 219.68 230.97C220.06 232.37 221.42 232.96 222.76 232.72L222.77 232.71Z"
            fill="#231f20"
        />
        <path
            d="M298.96 297.8C288.91 330.14 229.07 337.98 228.17 308.39C230.12 291.25 253.15 271.23 272.5 269.22C288.81 268.88 304.75 281.61 298.96 297.8Z"
            fill="#b4b6b7"
            stroke="#231F20"
            stroke-width="4.6"
            stroke-miterlimit="10"
        />
        <path
            d="M86.2101 262.05C84.6401 261.31 83.1701 260.96 81.8301 260.94C76.4101 250.51 68.2901 241.14 58.4501 236.95C44.0301 230.15 35.2801 243.74 37.6101 258.86C41.7401 276.93 61.5601 300.02 76.3001 303.36C81.6801 303.75 85.2301 301.44 87.2201 297.46C90.6101 300.47 94.1501 302.66 97.3101 303.37C112.8 304.51 104 269.64 86.2101 262.05Z"
            fill="#b4b6b7"
            stroke="#231F20"
            stroke-width="4.6"
            stroke-miterlimit="10"
        />
        <path
            d="M119.92 29.87C132.45 10.25 174.63 12.3 170.05 31.46C165.71 42.26 146.5 52.42 132.95 51.41C121.77 49.69 113.13 39.61 119.92 29.87Z"
            fill="#b4b6b7"
            stroke="#231F20"
            stroke-width="4.6"
            stroke-miterlimit="10"
        />
        <path
            d="M126.48 355.75C133.65 362.38 150.42 365.71 159.07 364.08C168.3 361.54 168.07 351.88 158.2 345.25C138.86 334.19 111.33 342.65 126.47 355.75H126.48Z"
            fill="#b4b6b7"
            stroke="#231F20"
            stroke-width="4.6"
            stroke-miterlimit="10"
        />
        <path
            d="M359.08 201.82C368.85 189.33 381.5 209.5 374.37 225C369.8 232.98 360.74 233.92 356.78 227.14C353.78 220.72 354.06 207.77 359.08 201.82Z"
            fill="#b4b6b7"
            stroke="#231F20"
            stroke-width="4.6"
            stroke-miterlimit="10"
        />
    </g>
</svg>